# xmcd
#
# Track frame offsets:
#	150
#	19024
#	33930
#	46968
#	62778
#	77070
#	88962
#	104887
#	118513
#	132978
#	152641
#	168726
#
# Disc length: 2411 seconds
#
# Revision: 1
# Processed by: cddbd v1.5.1PL2 Copyright (c) Steve Scherf et al.
# Submitted via: EasyCDDAExtractor 6.2.0.3
#
DISCID=a109690c
DTITLE=Halden Wofford and The Hibeams
DYEAR=2003
DGENRE=Country
TTITLE0=Bye Bye Baby
TTITLE1=(My Other Car's An) Appaloosa
TTITLE2=Yodelin' Rhythm and Blues
TTITLE3=ABC
TTITLE4=Billings' Bop
TTITLE5=Penny In The Fountain
TTITLE6=Long Gone
TTITLE7=Little Sue
TTITLE8=New Lover's Waltz
TTITLE9=Roll On
TTITLE10=Let's Make Believe
TTITLE11=Just Don't Care
EXTD=
EXTT0=
EXTT1=
EXTT2=
EXTT3=
EXTT4=
EXTT5=
EXTT6=
EXTT7=
EXTT8=
EXTT9=
EXTT10=
EXTT11=
PLAYORDER=
